<svg xmlns="http://www.w3.org/2000/svg" xmlns:xlink="http://www.w3.org/1999/xlink" viewBox="0 0 512 512"><defs><linearGradient id="linear-gradient" x1="256" y1="512.35" x2="256" y2="0.67" gradientUnits="userSpaceOnUse"><stop offset="0" stop-color="#934008"/><stop offset="0.02" stop-color="#96440a"/><stop offset="0.05" stop-color="#9d500e"/><stop offset="0.07" stop-color="#aa6516"/><stop offset="0.1" stop-color="#bb8121"/><stop offset="0.12" stop-color="#d2a630"/><stop offset="0.14" stop-color="#eed241"/><stop offset="0.16" stop-color="#ffee4c"/><stop offset="0.45" stop-color="#f8df46"/><stop offset="0.53" stop-color="#d9ad23"/><stop offset="0.61" stop-color="#ba7b00"/><stop offset="0.82" stop-color="#b15300"/><stop offset="0.93" stop-color="#fac029"/></linearGradient><linearGradient id="linear-gradient-2" x1="256" y1="508.27" x2="256" y2="4.75" gradientUnits="userSpaceOnUse"><stop offset="0" stop-color="#934008"/><stop offset="0.07" stop-color="#96440a"/><stop offset="0.14" stop-color="#9d500e"/><stop offset="0.21" stop-color="#aa6516"/><stop offset="0.29" stop-color="#bc8121"/><stop offset="0.36" stop-color="#d4a630"/><stop offset="0.43" stop-color="#f0d241"/><stop offset="0.45" stop-color="#f8df46"/><stop offset="0.59" stop-color="#deac2d"/><stop offset="0.82" stop-color="#b15300"/></linearGradient><linearGradient id="linear-gradient-3" x1="256" y1="498.07" x2="256" y2="6.79" gradientUnits="userSpaceOnUse"><stop offset="0.07" stop-color="#fac029"/><stop offset="0.3" stop-color="#b15300"/><stop offset="0.48" stop-color="#ba7b00"/><stop offset="0.57" stop-color="#d9ad23"/><stop offset="0.68" stop-color="#f8df46"/><stop offset="0.84" stop-color="#ffee4c"/><stop offset="0.86" stop-color="#eed241"/><stop offset="0.88" stop-color="#d2a630"/><stop offset="0.9" stop-color="#bb8121"/><stop offset="0.93" stop-color="#aa6516"/><stop offset="0.95" stop-color="#9d500e"/><stop offset="0.98" stop-color="#96440a"/><stop offset="1" stop-color="#934008"/></linearGradient><linearGradient id="Degradado_sin_nombre_11" x1="99.96" y1="262.13" x2="403.1" y2="262.13" gradientUnits="userSpaceOnUse"><stop offset="0.16" stop-color="#ffee4c"/><stop offset="0.45" stop-color="#f8df46"/></linearGradient></defs><title>twitter-other</title><g style="isolation:isolate"><g id="Layer_1" data-name="Layer 1"><path d="M256,512.35C115,512.35.23,397.58.23,256.51S115,.67,256,.67,511.77,115.44,511.77,256.51,397,512.35,256,512.35Z" fill="url(#linear-gradient)"/><path d="M256,504.19C117.22,504.19,4.31,391.25,4.31,252.43S117.22.67,256,.67,507.69,113.61,507.69,252.43,394.78,504.19,256,504.19Z" fill="none" stroke="#a57100" stroke-miterlimit="10" stroke-width="2.04" style="mix-blend-mode:screen"/><path d="M256,508.27C117.22,508.27,4.31,395.33,4.31,256.51S117.22,4.75,256,4.75,507.69,117.69,507.69,256.51,394.78,508.27,256,508.27Z" fill="url(#linear-gradient-2)"/><ellipse cx="256" cy="252.43" rx="245.57" ry="245.64" fill="url(#linear-gradient-3)"/><ellipse cx="256" cy="252.43" rx="245.57" ry="245.64" fill="none" stroke="#a57100" stroke-miterlimit="10" stroke-width="2.04" style="mix-blend-mode:hard-light"/><path d="M256,512.35C115,512.35.23,397.58.23,256.51S115,.67,256,.67,511.77,115.44,511.77,256.51,397,512.35,256,512.35Zm0-468.87c-117.43,0-213,95.57-213,213s95.54,213,213,213,213-95.57,213-213S373.44,43.48,256,43.48Z" fill="url(#linear-gradient)"/><g style="mix-blend-mode:screen"><path d="M256,504.19C117.22,504.19,4.31,391.25,4.31,252.43S117.22.67,256,.67,507.69,113.61,507.69,252.43,394.78,504.19,256,504.19Zm0-468.87c-119.69,0-217.05,97.4-217.05,217.11S136.31,469.54,256,469.54s217.06-97.4,217.06-217.12S375.69,35.31,256,35.31Z" fill="none" stroke="#a57100" stroke-miterlimit="10" stroke-width="2.04"/></g><path d="M256,508.27C117.22,508.27,4.31,395.33,4.31,256.51S117.22,4.75,256,4.75,507.69,117.69,507.69,256.51,394.78,508.27,256,508.27Zm0-468.87c-119.69,0-217.05,97.4-217.05,217.11S136.31,473.63,256,473.63s217.06-97.4,217.06-217.12S375.69,39.39,256,39.39Z" fill="url(#linear-gradient-2)"/><path d="M256,29.19c123.06,0,223.18,100.14,223.18,223.24S379.06,475.67,256,475.67,32.82,375.52,32.82,252.43,132.94,29.19,256,29.19m0-22.4c-135.62,0-245.57,110-245.57,245.64S120.37,498.07,256,498.07s245.58-110,245.58-245.64S391.62,6.79,256,6.79Z" fill="url(#linear-gradient-3)"/><g style="mix-blend-mode:hard-light"><path d="M256,29.19c123.06,0,223.18,100.14,223.18,223.24S379.06,475.67,256,475.67,32.82,375.52,32.82,252.43,132.94,29.19,256,29.19m0-22.4c-135.62,0-245.57,110-245.57,245.64S120.37,498.07,256,498.07s245.58-110,245.58-245.64S391.62,6.79,256,6.79Z" fill="none" stroke="#a57100" stroke-miterlimit="10" stroke-width="2.04"/></g><path d="M403.1,168.09a124.24,124.24,0,0,1-35.72,9.79,62.42,62.42,0,0,0,27.35-34.41,124.53,124.53,0,0,1-39.49,15.09,62.25,62.25,0,0,0-106,56.74,176.55,176.55,0,0,1-128.19-65,62.29,62.29,0,0,0,19.25,83.06,61.9,61.9,0,0,1-28.17-7.79c0,.26,0,.53,0,.79a62.25,62.25,0,0,0,49.9,61,62,62,0,0,1-16.38,2.19,62.85,62.85,0,0,1-11.7-1.11,62.26,62.26,0,0,0,58.1,43.2A125.45,125.45,0,0,1,100,357.39a175.91,175.91,0,0,0,95.33,28c114.4,0,177-94.78,177-177q0-4-.18-8a126.15,126.15,0,0,0,31-32.2Zm0,0" fill="url(#Degradado_sin_nombre_11)"/><path d="M401.06,166.05a124.24,124.24,0,0,1-35.72,9.79,62.42,62.42,0,0,0,27.35-34.41,124.53,124.53,0,0,1-39.49,15.09,62.25,62.25,0,0,0-106,56.74,176.55,176.55,0,0,1-128.19-65,62.29,62.29,0,0,0,19.25,83.06,61.9,61.9,0,0,1-28.17-7.79c0,.26,0,.53,0,.79a62.25,62.25,0,0,0,49.9,61,62,62,0,0,1-16.38,2.19,62.85,62.85,0,0,1-11.7-1.11,62.26,62.26,0,0,0,58.1,43.2,125.45,125.45,0,0,1-92.08,25.76,175.91,175.91,0,0,0,95.33,28c114.4,0,177-94.78,177-177q0-4-.18-8a126.15,126.15,0,0,0,31-32.2Zm0,0" fill="#633e00"/></g></g></svg>